<svg id="Capa_1" data-name="Capa 1" xmlns="http://www.w3.org/2000/svg" xmlns:xlink="http://www.w3.org/1999/xlink" viewBox="0 0 1365 250"><defs><style>.cls-1{fill:#c4c4c4;}.cls-2{mask:url(#mask);}.cls-3{fill:url(#Degradado_sin_nombre_2);}.cls-4,.cls-6{fill:none;stroke:#fff;}.cls-4{stroke-opacity:0.15;stroke-width:15px;}.cls-5{fill:#fff;fill-opacity:0.2;}.cls-6{stroke-opacity:0.6;stroke-width:8px;}</style><mask id="mask" x="-74" y="-100.84" width="1520.48" height="470.73" maskUnits="userSpaceOnUse"><g id="mask0"><rect class="cls-1" x="0.04" y="0.4" width="1366" height="250"/></g></mask><linearGradient id="Degradado_sin_nombre_2" x1="655.35" y1="633.9" x2="207.83" y2="-85.82" gradientTransform="matrix(1, 0, 0, -1, 262.04, 382.4)" gradientUnits="userSpaceOnUse"><stop offset="0" stop-color="#98d0fc"/><stop offset="1" stop-color="#3481d7"/></linearGradient></defs><title>BANNER</title><g class="cls-2"><rect class="cls-3" x="0.04" y="0.4" width="1366" height="250"/><path class="cls-4" d="M-72,97.4c69-19.5,220.7-50.7,275.5-19.5s116.83,153.67,141,211L827,275.4c-75.17-42.33-226.9-141.1-232.5-197.5s90-137.5,138.5-171l234,24c3.17,24.33,19.1,80.4,57.5,110s282-49.67,399-93L1438,344.4c-44.5-64.67-147.9-195.4-205.5-201S1002.87,216.07,924,255.9"/><circle class="cls-5" cx="88.04" cy="23.4" r="9"/><circle class="cls-5" cx="480.04" cy="115.4" r="9"/><circle class="cls-5" cx="602.04" cy="250.4" r="9"/><circle class="cls-5" cx="845.04" cy="35.4" r="9"/><circle class="cls-5" cx="1193.04" cy="200.4" r="9"/><circle class="cls-5" cx="1366.04" cy="116.4" r="9"/><circle class="cls-6" cx="240.04" cy="250.4" r="17"/><circle class="cls-6" cx="11.04" cy="170.4" r="17"/><circle class="cls-6" cx="382.04" cy="0.4" r="17"/><circle class="cls-6" cx="877.04" cy="221.4" r="17"/><circle class="cls-6" cx="1267.04" cy="71.4" r="17"/></g></svg>